<svg id="Layer_1" data-name="Layer 1" xmlns="http://www.w3.org/2000/svg" viewBox="0 0 800 27.82"><defs><style>.cls-1{fill:#00a651;}</style></defs><path class="cls-1" d="M800,.18V28H0V27C15.36,26.2,36.58,25,61.77,23.19,151.66,16.7,185.67,9.86,263.3,6.77c25.14-1,45.7-1.25,66.72-.86,7.83.15,35.78.76,73.87,3.83,32,2.58,31.78,3.72,64.34,6.3,26.69,2.12,45.61,3.58,70.81,3.41,17.83-.12,31.63-1.1,59.24-3.07,5.07-.36,13.65-1,65.87-5.7,35-3.16,36.39-3.34,52.94-4.77,38.42-3.29,53.84-4.24,63.06-4.76C787.39.75,794.05.43,800,.18Z" transform="translate(0 -0.18)"/></svg>