<svg id="Layer_1" data-name="Layer 1" xmlns="http://www.w3.org/2000/svg" viewBox="0 0 800 26.97"><defs><style>.cls-1{fill:#231f20;}.cls-2{fill:#00a651;}</style></defs><path class="cls-1" d="M800,0V.18c-6,.25-12.61.57-19.85,1-9.22.52-24.64,1.47-63.06,4.76-16.55,1.43-17.91,1.61-52.94,4.77-52.22,4.71-60.8,5.34-65.87,5.7-27.61,2-41.41,2.95-59.24,3.07-25.2.17-44.12-1.29-70.81-3.41-32.56-2.58-32.38-3.72-64.34-6.3-38.09-3.07-66-3.68-73.87-3.83-21-.39-41.58-.15-66.72.86C185.67,9.86,151.66,16.7,61.77,23.19,36.58,25,15.36,26.2,0,27V0Z"/><path class="cls-2" d="M800,0V.18c-6,.25-12.61.57-19.85,1-9.22.52-24.64,1.47-63.06,4.76-16.55,1.43-17.91,1.61-52.94,4.77-52.22,4.71-60.8,5.34-65.87,5.7-27.61,2-41.41,2.95-59.24,3.07-25.2.17-44.12-1.29-70.81-3.41-32.56-2.58-32.38-3.72-64.34-6.3-38.09-3.07-66-3.68-73.87-3.83-21-.39-41.58-.15-66.72.86C185.67,9.86,151.66,16.7,61.77,23.19,36.58,25,15.36,26.2,0,27V0Z"/></svg>